<?xml version="1.0" encoding="UTF-8"?>
<svg xmlns="http://www.w3.org/2000/svg" version="1.1" viewBox="0 0 200 200">
  <defs>
    <style>
      .cls-1 {
        fill: #fff;
      }

      .cls-2 {
        fill: none;
        stroke: #fff;
        stroke-miterlimit: 10;
        stroke-width: 4px;
      }
    </style>
  </defs>
  <!-- Generator: Adobe Illustrator 28.7.1, SVG Export Plug-In . SVG Version: 1.2.0 Build 142)  -->
  <g>
    <g id="Layer_1">
      <g>
        <path class="cls-1" d="M39.5,38.7v23.1c0,8.3-4.6,13.2-13.3,13.5l-.9-7.8c2.7,0,3.8-1.3,3.8-5.5v-23.3h10.4Z"/>
        <path class="cls-1" d="M43.4,53.5c1.6-4.5,5-7.6,10.7-7.6s10,4.3,10,9.5v12.5c0,.8.4,1.3,1.2,1.3h.7v5.4c-1.2.3-2.7.7-4.1.7-2.7,0-4.4-.8-5.4-1.9-1.7,1.5-3.6,2.1-6.1,2.1-4.8,0-7.6-3.5-7.6-8.2s2.5-9.4,11.1-9.4h.7v-2.4c0-2.1-.6-2.4-1.8-2.4s-2.3.8-3,3.2l-6.1-2.8ZM54.3,68.4v-4.5h-.8c-1.2,0-1.8.9-1.8,2.4,0,2.4.5,2.8,1.1,2.8s1.1-.3,1.4-.7Z"/>
        <path class="cls-1" d="M81.3,56.2c-.4-2.3-1.2-2.8-2.1-2.8s-2.1.5-2.1,3.5v7.8c0,3,.7,3.7,2.1,3.7s1.8-.8,2.2-2.9l6.9,2.3c-1.6,5.1-4.9,7.8-10.1,7.8-7.5,0-10.8-5.2-10.8-10.4v-8.7c0-5.5,3.5-10.4,10.8-10.4s8.7,2.8,10,8l-6.9,2.3Z"/>
        <path class="cls-1" d="M113.2,65.1c0,5.5-3.8,10.4-11.7,10.4s-11.7-4.9-11.7-10.4v-8.6c0-5.5,3.8-10.5,11.7-10.5s11.7,4.8,11.7,10.5v8.6ZM99.6,64.7c0,2.9.7,3.7,1.9,3.7s1.9-.8,1.9-3.7v-7.9c0-2.9-.6-3.8-1.9-3.8s-1.9.9-1.9,3.8v7.9Z"/>
        <path class="cls-1" d="M125.2,73.1h-.1l-.3,1.8h-8.5v-36.2h9.7v9h.1c1.4-1.2,3.3-1.8,5.5-1.8,4.8,0,7.8,3.9,7.8,11.1v7.3c0,7.1-3,10.9-8.6,10.9s-4.2-.6-5.7-2.2ZM126.1,67c.5.8,1,1,1.8,1,1.3,0,1.9-.7,1.9-3.6v-7c0-3-.6-3.6-1.7-3.6s-1.7.4-2,1.2v12.1Z"/>
      </g>
      <path class="cls-1" d="M24.5,98.2c0-4.8,2-9,6-12.6,4-3.6,8.8-5.5,14.6-5.5s4.4.3,6.1.8c1.5.6,3.1,1.2,4.6,1.8.7,0,1.4-.2,2-.7.6-.5,1.1-1.1,1.6-1.9h.8l-5.6,13.9h-.8c0-.5,0-1.1,0-2,0-.9,0-1.5,0-1.9v-2.9c0-2.1-.6-3.7-1.5-4.6-.9-.9-2.2-1.4-3.7-1.4s-2.5.4-3.8,1.3c-1.3.8-2.5,2-3.5,3.4-1.1,1.4-2,2.9-2.8,4.3-.8,1.5-1.6,3.1-2.3,4.9-.7,1.8-1.2,3.5-1.6,5.3-.4,1.8-.6,3.5-.6,5s.2,2.5.7,3.3c.5.8,1.3,1.3,2.4,1.3s2.1-.3,3-1c.8-.7,1.4-1.4,1.7-2.1.3-.7.6-1.4.9-2.2.3-.8.5-1.5.8-2.3.2-.7.4-1.4.5-1.9.1-.5.2-.9.2-1.3,0-.6-.3-.9-1-1.1-.6-.2-1.6-.2-2.9-.2v-.7h18.7v.7h-1.2c-1.3.1-2.2.5-2.6,1.3-.4.8-.9,1.8-1.5,3.3-.6,1.4-1.1,2.8-1.5,4.2-.5,1.4-.9,2.7-1.3,3.9h-.6c-.2-.6-.5-1.2-.9-1.8-.5-.6-1.4-.9-3-.9s-2.7.5-4.8,1.5c-2,1-3.9,1.5-5.7,1.5-3.4,0-6.2-1.2-8.3-3.6-2.1-2.4-3.2-5.5-3.2-9.1Z"/>
      <path class="cls-1" d="M66,85.1c.3-.8.6-1.4.7-1.8.1-.4.2-.7.2-1,0-.4-.2-.7-.7-.8-.5-.1-1.3-.2-2.5-.2v-.7h12.1c-.9,2.3-2.1,5.1-3.4,8.3-1.3,3.3-3,7.3-4.8,11.9-1.9,4.6-2.9,7.1-3,7.4,0,.3-.1.6-.1.9s0,.4.2.5c.1.1.2.2.4.2.7,0,1.5-.5,2.2-1.4.8-.9,1.4-1.7,1.9-2.5.5-.8,1-1.5,1.5-2.3l.6.3c-1.5,2.4-2.8,4.2-3.8,5.3-1.1,1.1-2.5,1.7-4.2,1.7s-2.7-.5-3.6-1.5c-1-1-1.4-2.1-1.4-3.4s0-1.2.2-1.7c.1-.5.3-1.1.6-1.8l7.1-17.5Z"/>
      <path class="cls-1" d="M80.9,101.3c-.2.5-.3,1.2-.5,2-.1.8-.2,1.5-.2,2.1,0,1.5.2,2.6.6,3.2.4.6,1,.9,1.9.9s1.2,0,1.7-.2,1.1-.4,1.7-.8,1.3-.9,2.1-1.7,1.3-1.5,1.7-2.2l.6.4c-1.1,1.6-2.5,3-4.1,4.1s-3.4,1.6-5.7,1.6-3.9-.6-5.7-1.8c-1.8-1.2-2.6-3-2.6-5.4s1.5-6.3,4.5-9c3-2.7,6.5-4.1,10.5-4.1s3.4.4,4.6,1.3c1.2.9,1.8,1.9,1.8,3,0,2.2-1.3,3.8-3.8,4.9-2.5,1.1-5.6,1.6-9.2,1.6ZM81,100.8c1.9-.2,3.6-1.3,5.2-3.2,1.6-1.9,2.3-3.6,2.3-5.1s0-.7-.2-.9c-.1-.2-.4-.3-.7-.3-.6,0-1.2.3-1.8,1-.6.7-1.2,1.6-1.9,2.7-.7,1.2-1.3,2.2-1.7,3.2-.5,1-.9,1.8-1.2,2.6Z"/>
      <path class="cls-1" d="M113.9,90.6c1.3,0,2.4.4,3.3,1.2.9.8,1.4,2,1.4,3.6s-.2,1.5-.5,2.4c-.3.8-.7,1.7-1.1,2.7-.4,1-1.2,2.5-2.3,4.7-1.1,2.2-1.7,3.4-1.7,3.8s0,.4.2.5c.1.1.3.2.5.2s.6-.2,1.1-.5c.5-.3,1.1-.9,1.9-1.8.8-.9,1.7-2.3,2.6-4.1l.5.3c-1.3,2.2-2.5,4-3.6,5.4-1.2,1.3-2.8,2-4.9,2s-2.5-.4-3.3-1.3c-.7-.9-1.1-2-1.1-3.2s0-1.6.3-2.1c.2-.5.8-1.8,1.7-3.8,1-2,1.8-3.6,2.4-4.8.6-1.3.9-2.2.9-3s0-.5-.2-.6c-.1-.1-.3-.2-.5-.2s-.7.2-1.3.6c-.5.4-1.1,1.1-1.8,2-.7.9-1.4,2.1-2.1,3.7l-5.9,12.3h-8l7-15.6c.2-.4.4-.9.6-1.4.2-.5.3-.9.3-1.1s0-.3-.1-.4-.2-.1-.4-.1c-.4,0-.8.2-1.3.5-.5.3-1,.8-1.5,1.3-.5.5-1,1.2-1.6,2.1-.6.8-1.1,1.7-1.7,2.6l-.5-.2c1.3-2.3,2.6-4.1,3.9-5.5s2.8-2.1,4.7-2.1,2.3.4,3.1,1.2c.8.8,1.1,1.9,1.1,3.4s0,1.3-.2,1.8-.2,1-.3,1.3c1.2-2.5,2.4-4.4,3.5-5.7,1.1-1.3,2.7-2,4.8-2Z"/>
      <path class="cls-1" d="M136.6,98.8v-.2c-.2,0-.5.1-1,.2-.5,0-.8,0-1,0-1.1,0-2.5-.3-4.1-.9-1.6-.6-2.9-.9-3.9-.9s-2.1.3-2.6.9c-.5.6-.9,1.4-1.1,2.5h-.5c0-2.7.7-5,2.2-6.9,1.4-1.9,3.5-2.8,6.3-2.8s3.6.8,5.7,2.3c2.1,1.5,3.6,2.3,4.5,2.3s.8-.1,1.2-.4c.4-.3.6-.6.6-1.1s0-.2,0-.3c0,0,0,0-.2-.1,0,0-.3,0-.5.1-.3,0-.5.1-.8.1s-.6-.1-.9-.4c-.3-.3-.4-.6-.4-1s.2-.8.5-1c.3-.3.7-.4,1.1-.4.7,0,1.1.2,1.4.6s.5,1,.5,1.6c0,1.1-.5,2.1-1.4,3.1-.9,1-2.1,1.8-3.4,2.3-.6.4-1.4.7-2.5,1.1-1.1.4-2,.7-2.8.9l-4,.9c-.6.1-1.3.3-2,.4-.7.2-1.4.4-2.1.6v.2c.3-.1.7-.2,1.2-.3.5,0,.9-.1,1.3-.1.8,0,2.1.3,4,.9,1.9.6,3.3.9,4.2.9,1.5,0,2.7-.3,3.5-.9.8-.6,1.4-1.6,1.7-3.1h.5c0,3-.8,5.6-2.4,7.7-1.6,2.2-3.9,3.2-6.8,3.2s-3.2-.9-5.5-2.6c-2.3-1.7-3.9-2.6-4.6-2.6s-1.3.2-1.8.6c-.5.4-.7.9-.7,1.7s0,.7.2,1,.4.4.7.4c.5-1.1,1.1-1.7,1.8-1.7s.9.2,1.1.5c.2.3.3.6.3,1,0,.6-.2,1-.6,1.3-.4.3-.9.5-1.4.5-.7,0-1.4-.3-1.9-.8-.5-.5-.8-1.3-.8-2.2s.4-2.1,1.2-3.1c.8-1,1.8-1.7,3-2.1.5-.3,1.4-.7,2.7-1.2,1.3-.5,2.4-.9,3.3-1.1.9-.2,1.8-.4,2.7-.6.9-.1,1.6-.3,2.3-.4.6-.1,1.3-.3,2-.5Z"/>
      <rect class="cls-2" x="18.4" y="27.3" width="135.1" height="96.8"/>
    </g>
  </g>
</svg>