<?xml version="1.0" encoding="UTF-8"?>
<svg id="Layer_1" xmlns="http://www.w3.org/2000/svg" viewBox="0 0 136.06 97.77">
  <defs>
    <style>
      .cls-1 {
        fill: #00ae4d;
      }

      .cls-2 {
        fill: none;
        stroke: #00ae4d;
        stroke-miterlimit: 10;
      }
    </style>
  </defs>
  <g>
    <path class="cls-1" d="M25.16,11.9v23.11c0,8.35-4.59,13.21-13.32,13.49l-.88-7.79c2.65,0,3.81-1.27,3.81-5.53V11.9h10.39Z"/>
    <path class="cls-1" d="M28.97,26.67c1.6-4.48,5.03-7.57,10.67-7.57,7.24,0,9.95,4.26,9.95,9.51v12.55c0,.77.39,1.27,1.16,1.27h.66v5.36c-1.22.33-2.71.66-4.15.66-2.71,0-4.37-.77-5.42-1.94-1.71,1.49-3.59,2.1-6.14,2.1-4.81,0-7.57-3.54-7.57-8.24s2.49-9.4,11.06-9.4h.72v-2.38c0-2.1-.61-2.38-1.82-2.38-1,0-2.27.77-3.04,3.21l-6.08-2.76ZM39.92,41.59v-4.53h-.77c-1.22,0-1.77.89-1.77,2.43,0,2.43.5,2.82,1.11,2.82s1.05-.28,1.44-.72Z"/>
    <path class="cls-1" d="M66.95,29.32c-.44-2.27-1.16-2.82-2.1-2.82-1.22,0-2.1.5-2.1,3.48v7.79c0,2.99.66,3.7,2.1,3.7,1.11,0,1.77-.77,2.21-2.87l6.91,2.27c-1.6,5.09-4.92,7.79-10.12,7.79-7.46,0-10.84-5.2-10.84-10.39v-8.73c0-5.47,3.48-10.45,10.84-10.45,4.92,0,8.68,2.76,10.01,7.96l-6.91,2.27Z"/>
    <path class="cls-1" d="M98.85,38.22c0,5.53-3.76,10.45-11.66,10.45s-11.66-4.86-11.66-10.45v-8.62c0-5.53,3.76-10.5,11.66-10.5s11.66,4.81,11.66,10.5v8.62ZM85.25,37.83c0,2.87.72,3.7,1.93,3.7,1.38,0,1.94-.83,1.94-3.7v-7.85c0-2.87-.55-3.76-1.94-3.76s-1.93.88-1.93,3.76v7.85Z"/>
    <path class="cls-1" d="M110.8,46.29h-.11l-.28,1.82h-8.46V11.9h9.73v8.96h.11c1.38-1.22,3.26-1.77,5.53-1.77,4.81,0,7.79,3.87,7.79,11.11v7.3c0,7.08-3.04,10.95-8.57,10.95-2.21,0-4.2-.61-5.75-2.16ZM111.68,40.15c.5.77,1,1,1.77,1,1.27,0,1.94-.66,1.94-3.65v-7.02c0-2.98-.55-3.59-1.66-3.59-.94,0-1.66.44-2.05,1.16v12.11Z"/>
  </g>
  <g>
    <path class="cls-1" d="M8.62,71.34c0-4.76,1.99-8.96,5.97-12.61,3.98-3.65,8.84-5.47,14.58-5.47,2.38,0,4.41.27,6.11.82,1.53.63,3.07,1.24,4.63,1.85.71,0,1.37-.25,1.99-.74.61-.49,1.14-1.13,1.58-1.93h.78l-5.58,13.9h-.78c.03-.46.06-1.13.08-1.99.03-.86.04-1.48.04-1.87l-.08-2.87c0-2.13-.47-3.66-1.41-4.57-.94-.92-2.18-1.37-3.71-1.37-1.23,0-2.49.42-3.77,1.27-1.29.85-2.45,1.98-3.51,3.38-1.05,1.41-1.99,2.86-2.81,4.35-.82,1.49-1.57,3.12-2.26,4.88-.68,1.76-1.22,3.53-1.62,5.31-.4,1.78-.59,3.46-.59,5.04,0,1.37.24,2.47.72,3.3.48.83,1.28,1.25,2.4,1.25s2.13-.35,2.95-1.05c.82-.7,1.38-1.39,1.68-2.09.3-.7.59-1.44.88-2.21.29-.78.54-1.54.76-2.28.22-.74.4-1.37.53-1.91.14-.53.21-.95.21-1.25,0-.57-.32-.94-.96-1.11-.64-.16-1.62-.25-2.93-.25v-.66h18.7v.66l-1.23.12c-1.34,0-2.22.38-2.63,1.13-.41.75-.9,1.84-1.46,3.26-.56,1.42-1.07,2.84-1.52,4.24-.45,1.41-.87,2.71-1.25,3.92h-.62c-.16-.6-.47-1.2-.92-1.8-.45-.6-1.44-.9-2.98-.9-1.15,0-2.74.5-4.76,1.5-2.02,1-3.94,1.5-5.75,1.5-3.39,0-6.15-1.21-8.27-3.63-2.12-2.42-3.18-5.46-3.18-9.12Z"/>
    <path class="cls-1" d="M50.11,58.22c.33-.82.55-1.42.68-1.8.12-.38.18-.72.18-1.02,0-.44-.23-.72-.68-.84-.45-.12-1.28-.18-2.48-.18v-.66h12.1c-.93,2.27-2.06,5.05-3.4,8.34-1.34,3.29-2.95,7.26-4.84,11.89-1.89,4.63-2.88,7.09-2.97,7.36-.1.27-.14.56-.14.86,0,.25.05.42.16.53.11.11.25.16.41.16.74,0,1.48-.45,2.23-1.35.75-.9,1.39-1.75,1.93-2.54.53-.79,1.02-1.54,1.46-2.26l.57.29c-1.48,2.43-2.75,4.21-3.83,5.33-1.08,1.12-2.47,1.68-4.16,1.68-1.48,0-2.69-.49-3.65-1.48-.96-.98-1.43-2.1-1.43-3.36,0-.63.07-1.2.2-1.72.14-.52.34-1.11.62-1.76l7.05-17.47Z"/>
    <path class="cls-1" d="M65,74.49c-.16.52-.32,1.19-.45,2.03-.14.83-.21,1.52-.21,2.07,0,1.53.21,2.61.64,3.24.42.63,1.05.94,1.87.94.63,0,1.19-.08,1.68-.23s1.07-.42,1.72-.8,1.35-.94,2.07-1.68,1.31-1.46,1.75-2.17l.57.41c-1.15,1.61-2.5,2.97-4.07,4.06s-3.45,1.64-5.67,1.64c-2.02,0-3.92-.61-5.68-1.83-1.76-1.22-2.64-3-2.64-5.35,0-3.28,1.49-6.28,4.46-9,2.97-2.72,6.47-4.08,10.5-4.08,1.89,0,3.44.43,4.64,1.29,1.21.86,1.81,1.85,1.81,2.97,0,2.16-1.26,3.78-3.78,4.86-2.52,1.08-5.59,1.62-9.21,1.62ZM65.12,74c1.91-.22,3.65-1.29,5.21-3.2,1.56-1.92,2.34-3.61,2.34-5.08,0-.41-.06-.72-.16-.94-.11-.22-.36-.33-.74-.33-.6,0-1.2.33-1.8.98-.6.65-1.24,1.57-1.93,2.73-.68,1.17-1.26,2.24-1.74,3.21-.48.97-.87,1.84-1.17,2.63Z"/>
    <path class="cls-1" d="M98,63.74c1.28,0,2.38.4,3.3,1.21.92.81,1.37,2.02,1.37,3.63,0,.74-.15,1.52-.45,2.36-.3.83-.67,1.73-1.11,2.69-.44.96-1.22,2.52-2.34,4.67-1.12,2.16-1.68,3.43-1.68,3.81,0,.22.05.38.16.49.11.11.27.16.49.16.27,0,.64-.16,1.11-.49.46-.33,1.1-.94,1.91-1.84.81-.9,1.66-2.25,2.56-4.05l.53.29c-1.26,2.25-2.47,4.03-3.63,5.36-1.16,1.33-2.8,1.99-4.9,1.99-1.45,0-2.54-.44-3.28-1.31-.74-.87-1.11-1.95-1.11-3.24,0-.87.1-1.58.29-2.13.19-.55.77-1.8,1.74-3.77.97-1.97,1.77-3.58,2.4-4.84.63-1.26.94-2.24.94-2.95,0-.27-.06-.47-.16-.59-.11-.12-.29-.18-.53-.18-.33,0-.75.2-1.25.61-.51.41-1.1,1.07-1.78,1.97-.68.9-1.39,2.13-2.13,3.69l-5.94,12.33h-8l6.97-15.57c.16-.41.35-.87.57-1.37.22-.5.33-.87.33-1.09,0-.19-.04-.33-.12-.41s-.21-.12-.37-.12c-.38,0-.82.17-1.31.51-.49.34-.98.79-1.46,1.33-.48.55-1,1.24-1.56,2.07-.56.83-1.11,1.7-1.66,2.6l-.53-.25c1.31-2.3,2.6-4.13,3.87-5.5s2.83-2.05,4.69-2.05c1.31,0,2.34.4,3.1,1.21.75.81,1.13,1.94,1.13,3.39,0,.66-.06,1.25-.18,1.79s-.23.97-.31,1.29c1.23-2.46,2.41-4.36,3.55-5.69,1.13-1.33,2.73-1.99,4.78-1.99Z"/>
    <path class="cls-1" d="M120.68,71.99l-.04-.21c-.14.06-.45.11-.94.16-.49.06-.82.08-.98.08-1.12,0-2.49-.31-4.1-.94-1.61-.63-2.91-.94-3.9-.94-1.26,0-2.14.29-2.64.88-.51.59-.87,1.43-1.09,2.52h-.45c0-2.73.72-5.05,2.15-6.95,1.44-1.9,3.52-2.85,6.25-2.85,1.72,0,3.61.75,5.66,2.26,2.05,1.5,3.55,2.25,4.51,2.25.44,0,.84-.14,1.21-.41.37-.27.55-.63.55-1.07,0-.14-.01-.23-.04-.29-.03-.05-.08-.1-.16-.12-.08,0-.26.04-.53.12-.27.08-.55.12-.82.12-.33,0-.64-.14-.92-.43-.29-.29-.43-.62-.43-1,0-.44.17-.79.51-1.05.34-.26.7-.39,1.09-.39.66,0,1.13.21,1.44.62s.45.96.45,1.64c0,1.07-.47,2.1-1.39,3.1-.93,1-2.08,1.76-3.44,2.28-.6.36-1.44.73-2.5,1.13-1.07.4-2,.69-2.79.88l-3.98.9c-.6.14-1.27.28-2.01.43-.74.15-1.44.36-2.09.64l.08.21c.25-.11.62-.21,1.13-.29.51-.08.94-.12,1.29-.12.77,0,2.1.31,4.02.92,1.91.61,3.31.92,4.18.92,1.5,0,2.67-.29,3.51-.87.83-.58,1.41-1.6,1.74-3.07h.45c0,2.99-.81,5.56-2.44,7.72-1.63,2.15-3.89,3.23-6.79,3.23-1.34,0-3.18-.87-5.51-2.6-2.34-1.74-3.86-2.6-4.57-2.6s-1.3.18-1.76.55c-.46.37-.7.94-.7,1.7,0,.36.08.68.25.96s.38.43.66.43c.55-1.12,1.15-1.68,1.8-1.68.55,0,.93.16,1.15.47.22.31.33.65.33,1,0,.57-.21,1.01-.61,1.31-.41.3-.88.45-1.39.45-.74,0-1.36-.27-1.87-.8-.51-.53-.76-1.28-.76-2.23,0-1.07.4-2.08,1.21-3.05.81-.97,1.81-1.67,3.01-2.11.52-.33,1.42-.74,2.71-1.23,1.28-.49,2.39-.86,3.32-1.11.93-.25,1.83-.44,2.71-.57.87-.14,1.63-.27,2.28-.39.64-.12,1.32-.29,2.03-.51Z"/>
  </g>
  <rect class="cls-2" x=".5" y=".5" width="135.06" height="96.77"/>
</svg>