<?xml version="1.0" encoding="UTF-8"?>
<svg id="Layer_2" xmlns="http://www.w3.org/2000/svg" viewBox="0 0 66.15 47.68">
  <defs>
    <style>
      .cls-1 {
        fill: #00ae4d;
      }

      .cls-2 {
        fill: none;
        stroke: #00ae4d;
        stroke-miterlimit: 10;
      }
    </style>
  </defs>
  <g id="Layer_1-2" data-name="Layer_1">
    <path class="cls-1" d="M23.51,5.54v23.11c0,8.35-4.59,13.21-13.32,13.49l-.88-7.79c2.65,0,3.81-1.27,3.81-5.53V5.54h10.39Z"/>
    <path class="cls-1" d="M26.7,26.5c0-4.76,1.99-8.96,5.97-12.61,3.98-3.65,8.84-5.47,14.58-5.47,2.38,0,4.41.27,6.11.82,1.53.63,3.07,1.24,4.63,1.85.71,0,1.37-.25,1.99-.74.61-.49,1.14-1.13,1.58-1.93h.78l-5.58,13.9h-.78c.03-.46.06-1.13.08-1.99.03-.86.04-1.48.04-1.87l-.08-2.87c0-2.13-.47-3.66-1.41-4.57-.94-.92-2.18-1.37-3.71-1.37-1.23,0-2.49.42-3.77,1.27-1.29.85-2.45,1.98-3.51,3.38-1.05,1.41-1.99,2.86-2.81,4.35-.82,1.49-1.57,3.12-2.26,4.88-.68,1.76-1.22,3.53-1.62,5.31-.4,1.78-.59,3.46-.59,5.04,0,1.37.24,2.47.72,3.3.48.83,1.28,1.25,2.4,1.25s2.13-.35,2.95-1.05c.82-.7,1.38-1.39,1.68-2.09.3-.7.59-1.44.88-2.21.29-.78.54-1.54.76-2.28.22-.74.4-1.37.53-1.91.14-.53.21-.95.21-1.25,0-.57-.32-.94-.96-1.11-.64-.16-1.62-.25-2.93-.25v-.66h18.7v.66l-1.23.12c-1.34,0-2.22.38-2.63,1.13-.41.75-.9,1.84-1.46,3.26-.56,1.42-1.07,2.84-1.52,4.24-.45,1.41-.87,2.71-1.25,3.92h-.62c-.16-.6-.47-1.2-.92-1.8-.45-.6-1.44-.9-2.98-.9-1.15,0-2.74.5-4.76,1.5-2.02,1-3.94,1.5-5.75,1.5-3.39,0-6.15-1.21-8.27-3.63-2.12-2.42-3.18-5.46-3.18-9.12Z"/>
    <rect class="cls-2" x=".5" y=".5" width="65.15" height="46.68"/>
  </g>
</svg>